<svg width="14" height="14" viewBox="0 0 14 14" fill="none" xmlns="http://www.w3.org/2000/svg">
<g clip-path="url(#clip0_2_631)">
<rect width="14" height="14" rx="7" fill="#366CE1"/>
<path d="M4.94189 8.82422C4.771 8.9821 4.52767 9.06104 4.21191 9.06104C4.01009 9.06104 3.82617 9.02279 3.66016 8.94629C3.49414 8.86816 3.35824 8.764 3.25244 8.63379C3.02946 8.36035 2.91797 8.03076 2.91797 7.64502C2.91797 7.396 2.96842 7.16569 3.06934 6.9541C3.17188 6.74251 3.32243 6.5708 3.521 6.43896C3.71956 6.30713 3.96452 6.24121 4.25586 6.24121C4.5472 6.24121 4.77344 6.31852 4.93457 6.47314L4.82227 6.771C4.63509 6.64567 4.4235 6.58301 4.1875 6.58301C3.9515 6.58301 3.75537 6.68392 3.59912 6.88574C3.4445 7.08757 3.36719 7.34473 3.36719 7.65723C3.36719 7.9681 3.4445 8.22282 3.59912 8.42139C3.75537 8.61995 3.95394 8.71924 4.19482 8.71924C4.43734 8.71924 4.65055 8.65413 4.83447 8.52393L4.94189 8.82422ZM7.32471 7.479C7.55583 7.53597 7.72428 7.6263 7.83008 7.75C7.9375 7.8737 7.99121 8.05273 7.99121 8.28711C7.99121 8.51986 7.90169 8.70703 7.72266 8.84863C7.54525 8.99023 7.32227 9.06104 7.05371 9.06104C6.86165 9.06104 6.67529 9.03743 6.49463 8.99023C6.31396 8.94141 6.1805 8.88444 6.09424 8.81934L6.2041 8.49951C6.27246 8.54183 6.3807 8.58496 6.52881 8.62891C6.67692 8.67122 6.83724 8.69238 7.00977 8.69238C7.18392 8.69238 7.32227 8.65658 7.4248 8.58496C7.52897 8.51172 7.58105 8.41488 7.58105 8.29443C7.58105 8.17399 7.55501 8.07959 7.50293 8.01123C7.45247 7.94124 7.354 7.88835 7.20752 7.85254L6.75342 7.74268C6.49137 7.67757 6.31722 7.58317 6.23096 7.45947C6.14469 7.33415 6.10156 7.17871 6.10156 6.99316C6.10156 6.80762 6.17643 6.63672 6.32617 6.48047C6.47754 6.32422 6.69727 6.24447 6.98535 6.24121H7.01709C7.34098 6.24121 7.61686 6.30225 7.84473 6.42432L7.74707 6.73682C7.50944 6.6359 7.26855 6.58545 7.02441 6.58545C6.87305 6.58708 6.74854 6.62533 6.65088 6.7002C6.55485 6.77344 6.50684 6.86621 6.50684 6.97852C6.50684 7.09082 6.53125 7.17546 6.58008 7.23242C6.62891 7.28776 6.72168 7.33171 6.8584 7.36426L7.32471 7.479ZM10.3276 7.479C10.5588 7.53597 10.7272 7.6263 10.833 7.75C10.9404 7.8737 10.9941 8.05273 10.9941 8.28711C10.9941 8.51986 10.9046 8.70703 10.7256 8.84863C10.5482 8.99023 10.3252 9.06104 10.0566 9.06104C9.86458 9.06104 9.67822 9.03743 9.49756 8.99023C9.31689 8.94141 9.18343 8.88444 9.09717 8.81934L9.20703 8.49951C9.27539 8.54183 9.38363 8.58496 9.53174 8.62891C9.67985 8.67122 9.84017 8.69238 10.0127 8.69238C10.1868 8.69238 10.3252 8.65658 10.4277 8.58496C10.5319 8.51172 10.584 8.41488 10.584 8.29443C10.584 8.17399 10.5579 8.07959 10.5059 8.01123C10.4554 7.94124 10.3569 7.88835 10.2104 7.85254L9.75635 7.74268C9.4943 7.67757 9.32015 7.58317 9.23389 7.45947C9.14762 7.33415 9.10449 7.17871 9.10449 6.99316C9.10449 6.80762 9.17936 6.63672 9.3291 6.48047C9.48047 6.32422 9.7002 6.24447 9.98828 6.24121H10.02C10.3439 6.24121 10.6198 6.30225 10.8477 6.42432L10.75 6.73682C10.5124 6.6359 10.2715 6.58545 10.0273 6.58545C9.87598 6.58708 9.75146 6.62533 9.65381 6.7002C9.55778 6.77344 9.50977 6.86621 9.50977 6.97852C9.50977 7.09082 9.53418 7.17546 9.58301 7.23242C9.63184 7.28776 9.72461 7.33171 9.86133 7.36426L10.3276 7.479Z" fill="white"/>
</g>
<defs>
<clipPath id="clip0_2_631">
<rect width="14" height="14" fill="white"/>
</clipPath>
</defs>
</svg>
