<svg width="14" height="14" viewBox="0 0 14 14" fill="none" xmlns="http://www.w3.org/2000/svg">
<g clip-path="url(#clip0_2_270)">
<rect width="14" height="14" rx="7" fill="#DDAD2C"/>
<path d="M5.05664 9.53711C5.21452 9.53711 5.3195 9.52327 5.37158 9.49561C5.42529 9.46794 5.46354 9.43945 5.48633 9.41016C5.54329 9.3304 5.57178 9.1359 5.57178 8.82666V6.66357H4.61719V6.32178H6.01611V8.68994C6.01611 9.10661 5.98275 9.38249 5.91602 9.51758C5.85091 9.65267 5.76221 9.74219 5.6499 9.78613C5.4904 9.84798 5.29346 9.87891 5.05908 9.87891H4.41699V9.53711H5.05664ZM5.49365 5.61621V5.37451C5.49365 5.31592 5.5262 5.26465 5.59131 5.2207C5.65804 5.17513 5.72396 5.15234 5.78906 5.15234C5.85417 5.15234 5.91927 5.17513 5.98438 5.2207C6.05111 5.26465 6.08447 5.31592 6.08447 5.37451V5.61621C6.08447 5.6748 6.05111 5.72689 5.98438 5.77246C5.91927 5.81641 5.85417 5.83838 5.78906 5.83838C5.72396 5.83838 5.65804 5.81641 5.59131 5.77246C5.5262 5.72689 5.49365 5.6748 5.49365 5.61621ZM8.82617 7.479C9.05729 7.53597 9.22575 7.6263 9.33154 7.75C9.43896 7.8737 9.49268 8.05273 9.49268 8.28711C9.49268 8.51986 9.40316 8.70703 9.22412 8.84863C9.04671 8.99023 8.82373 9.06104 8.55518 9.06104C8.36312 9.06104 8.17676 9.03743 7.99609 8.99023C7.81543 8.94141 7.68197 8.88444 7.5957 8.81934L7.70557 8.49951C7.77393 8.54183 7.88216 8.58496 8.03027 8.62891C8.17839 8.67122 8.3387 8.69238 8.51123 8.69238C8.68538 8.69238 8.82373 8.65658 8.92627 8.58496C9.03044 8.51172 9.08252 8.41488 9.08252 8.29443C9.08252 8.17399 9.05648 8.07959 9.00439 8.01123C8.95394 7.94124 8.85547 7.88835 8.70898 7.85254L8.25488 7.74268C7.99284 7.67757 7.81868 7.58317 7.73242 7.45947C7.64616 7.33415 7.60303 7.17871 7.60303 6.99316C7.60303 6.80762 7.6779 6.63672 7.82764 6.48047C7.979 6.32422 8.19873 6.24447 8.48682 6.24121H8.51855C8.84245 6.24121 9.11833 6.30225 9.34619 6.42432L9.24854 6.73682C9.0109 6.6359 8.77002 6.58545 8.52588 6.58545C8.37451 6.58708 8.25 6.62533 8.15234 6.7002C8.05632 6.77344 8.0083 6.86621 8.0083 6.97852C8.0083 7.09082 8.03271 7.17546 8.08154 7.23242C8.13037 7.28776 8.22314 7.33171 8.35986 7.36426L8.82617 7.479Z" fill="white"/>
</g>
<defs>
<clipPath id="clip0_2_270">
<rect width="14" height="14" fill="white"/>
</clipPath>
</defs>
</svg>
