<svg width="14" height="14" viewBox="0 0 14 14" fill="none" xmlns="http://www.w3.org/2000/svg">
<g clip-path="url(#clip0_2_728)">
<path d="M0 7C0 3.13401 3.13401 0 7 0C10.866 0 14 3.13401 14 7C14 10.866 10.866 14 7 14C3.13401 14 0 10.866 0 7Z" fill="#2F52C1"/>
<path d="M3.91895 6.66357V7.9209C3.91895 8.07715 3.92708 8.20085 3.94336 8.29199C3.96126 8.38314 3.99544 8.45719 4.0459 8.51416C4.09798 8.57113 4.16471 8.60938 4.24609 8.62891C4.32747 8.64844 4.43815 8.6582 4.57812 8.6582H5.06885L5.04443 9H4.59521C4.1346 9 3.8278 8.91536 3.6748 8.74609C3.57552 8.63542 3.51449 8.45719 3.4917 8.21143C3.48031 8.10238 3.47461 7.9681 3.47461 7.80859V6.66357H2.71777L2.7666 6.32178H3.47461V5.39893L3.91895 5.26709V6.32178H5.04688V6.66357H3.91895ZM7.32471 7.479C7.55583 7.53597 7.72428 7.6263 7.83008 7.75C7.9375 7.8737 7.99121 8.05273 7.99121 8.28711C7.99121 8.51986 7.90169 8.70703 7.72266 8.84863C7.54525 8.99023 7.32227 9.06104 7.05371 9.06104C6.86165 9.06104 6.67529 9.03743 6.49463 8.99023C6.31396 8.94141 6.1805 8.88444 6.09424 8.81934L6.2041 8.49951C6.27246 8.54183 6.3807 8.58496 6.52881 8.62891C6.67692 8.67122 6.83724 8.69238 7.00977 8.69238C7.18392 8.69238 7.32227 8.65658 7.4248 8.58496C7.52897 8.51172 7.58105 8.41488 7.58105 8.29443C7.58105 8.17399 7.55501 8.07959 7.50293 8.01123C7.45247 7.94124 7.354 7.88835 7.20752 7.85254L6.75342 7.74268C6.49137 7.67757 6.31722 7.58317 6.23096 7.45947C6.14469 7.33415 6.10156 7.17871 6.10156 6.99316C6.10156 6.80762 6.17643 6.63672 6.32617 6.48047C6.47754 6.32422 6.69727 6.24447 6.98535 6.24121H7.01709C7.34098 6.24121 7.61686 6.30225 7.84473 6.42432L7.74707 6.73682C7.50944 6.6359 7.26855 6.58545 7.02441 6.58545C6.87305 6.58708 6.74854 6.62533 6.65088 6.7002C6.55485 6.77344 6.50684 6.86621 6.50684 6.97852C6.50684 7.09082 6.53125 7.17546 6.58008 7.23242C6.62891 7.28776 6.72168 7.33171 6.8584 7.36426L7.32471 7.479ZM8.88721 6.32178H9.39502L10.0322 7.35205L10.6694 6.32178H11.1309L10.3081 7.62061L11.1602 9H10.667L10.0127 7.93311L9.33154 9H8.84326L9.72217 7.63281L8.88721 6.32178Z" fill="white"/>
</g>
<defs>
<clipPath id="clip0_2_728">
<rect width="14" height="14" fill="white"/>
</clipPath>
</defs>
</svg>
