<svg width="14" height="14" viewBox="0 0 14 14" fill="none" xmlns="http://www.w3.org/2000/svg">
<g clip-path="url(#clip0_2_635)">
<rect width="14" height="14" rx="7" fill="#F0282C"/>
<path d="M3.54297 7.38379V9H3.09863V7.43994C3.09863 7.10465 3.05387 6.87842 2.96436 6.76123C2.87484 6.64242 2.73975 6.58301 2.55908 6.58301C2.37679 6.58301 2.2181 6.64648 2.08301 6.77344C1.94954 6.89876 1.88281 7.03385 1.88281 7.17871V9H1.43848V5.22803L1.88281 5.1792V6.64648C2.09115 6.3763 2.37028 6.24121 2.72021 6.24121C3.26872 6.24121 3.54297 6.62207 3.54297 7.38379ZM5.42041 6.66357V7.9209C5.42041 8.07715 5.42855 8.20085 5.44482 8.29199C5.46273 8.38314 5.49691 8.45719 5.54736 8.51416C5.59945 8.57113 5.66618 8.60938 5.74756 8.62891C5.82894 8.64844 5.93962 8.6582 6.07959 8.6582H6.57031L6.5459 9H6.09668C5.63607 9 5.32926 8.91536 5.17627 8.74609C5.07699 8.63542 5.01595 8.45719 4.99316 8.21143C4.98177 8.10238 4.97607 7.9681 4.97607 7.80859V6.66357H4.21924L4.26807 6.32178H4.97607V5.39893L5.42041 5.26709V6.32178H6.54834V6.66357H5.42041ZM8.63086 6.65625C8.73828 6.37956 8.92627 6.24121 9.19482 6.24121C9.53499 6.24121 9.72705 6.48617 9.771 6.97607C9.77913 7.06722 9.7832 7.16976 9.7832 7.28369V9H9.37549V7.33496C9.37549 7.01432 9.35433 6.81576 9.31201 6.73926C9.26969 6.66113 9.23063 6.61556 9.19482 6.60254C9.16064 6.58952 9.1224 6.58301 9.08008 6.58301C8.93685 6.58301 8.83512 6.66276 8.7749 6.82227C8.73584 6.9248 8.71631 7.09733 8.71631 7.33984V9H8.34277V7.3667C8.34277 7.007 8.30046 6.77344 8.21582 6.66602C8.17188 6.61068 8.1084 6.58301 8.02539 6.58301C7.94401 6.58301 7.87402 6.61882 7.81543 6.69043C7.70638 6.82389 7.65186 7.007 7.65186 7.23975V9H7.24414V6.32178H7.59814L7.625 6.67578C7.6722 6.55371 7.7373 6.45117 7.82031 6.36816C7.90332 6.28353 8.00667 6.24121 8.13037 6.24121C8.2557 6.24121 8.36149 6.27783 8.44775 6.35107C8.53564 6.42432 8.59668 6.52604 8.63086 6.65625ZM12.5396 9H12.1855C11.8714 9 11.6468 8.96745 11.5117 8.90234C11.4336 8.86491 11.3717 8.82178 11.3262 8.77295C11.2057 8.64762 11.1431 8.37093 11.1382 7.94287V5.521H10.3374V5.1792H11.5825V7.9209C11.5825 8.24479 11.6118 8.44336 11.6704 8.5166C11.7306 8.58984 11.8055 8.63216 11.895 8.64355C11.9845 8.65332 12.0757 8.6582 12.1685 8.6582H12.5615L12.5396 9Z" fill="white"/>
</g>
<defs>
<clipPath id="clip0_2_635">
<rect width="14" height="14" fill="white"/>
</clipPath>
</defs>
</svg>
