<svg width="14" height="14" viewBox="0 0 14 14" fill="none" xmlns="http://www.w3.org/2000/svg">
<g clip-path="url(#clip0_2_263)">
<rect width="14" height="14" rx="7" fill="#2F52C1"/>
<path d="M5.42041 6.66357V7.9209C5.42041 8.07715 5.42855 8.20085 5.44482 8.29199C5.46273 8.38314 5.49691 8.45719 5.54736 8.51416C5.59945 8.57113 5.66618 8.60938 5.74756 8.62891C5.82894 8.64844 5.93962 8.6582 6.07959 8.6582H6.57031L6.5459 9H6.09668C5.63607 9 5.32926 8.91536 5.17627 8.74609C5.07699 8.63542 5.01595 8.45719 4.99316 8.21143C4.98177 8.10238 4.97607 7.9681 4.97607 7.80859V6.66357H4.21924L4.26807 6.32178H4.97607V5.39893L5.42041 5.26709V6.32178H6.54834V6.66357H5.42041ZM8.82617 7.479C9.05729 7.53597 9.22575 7.6263 9.33154 7.75C9.43896 7.8737 9.49268 8.05273 9.49268 8.28711C9.49268 8.51986 9.40316 8.70703 9.22412 8.84863C9.04671 8.99023 8.82373 9.06104 8.55518 9.06104C8.36312 9.06104 8.17676 9.03743 7.99609 8.99023C7.81543 8.94141 7.68197 8.88444 7.5957 8.81934L7.70557 8.49951C7.77393 8.54183 7.88216 8.58496 8.03027 8.62891C8.17839 8.67122 8.3387 8.69238 8.51123 8.69238C8.68538 8.69238 8.82373 8.65658 8.92627 8.58496C9.03044 8.51172 9.08252 8.41488 9.08252 8.29443C9.08252 8.17399 9.05648 8.07959 9.00439 8.01123C8.95394 7.94124 8.85547 7.88835 8.70898 7.85254L8.25488 7.74268C7.99284 7.67757 7.81868 7.58317 7.73242 7.45947C7.64616 7.33415 7.60303 7.17871 7.60303 6.99316C7.60303 6.80762 7.6779 6.63672 7.82764 6.48047C7.979 6.32422 8.19873 6.24447 8.48682 6.24121H8.51855C8.84245 6.24121 9.11833 6.30225 9.34619 6.42432L9.24854 6.73682C9.0109 6.6359 8.77002 6.58545 8.52588 6.58545C8.37451 6.58708 8.25 6.62533 8.15234 6.7002C8.05632 6.77344 8.0083 6.86621 8.0083 6.97852C8.0083 7.09082 8.03271 7.17546 8.08154 7.23242C8.13037 7.28776 8.22314 7.33171 8.35986 7.36426L8.82617 7.479Z" fill="white"/>
</g>
<defs>
<clipPath id="clip0_2_263">
<rect width="14" height="14" fill="white"/>
</clipPath>
</defs>
</svg>
